HIERARCHY
ROOT root
{
	OFFSET 0.000000 0.000000 0.000000
	CHANNELS 6 Xposition Yposition Zposition Zrotation Yrotation Xrotation
	JOINT lhip
	{
		OFFSET 0.058581 -0.082280 -0.017664
		CHANNELS 3 Zrotation Yrotation Xrotation
		JOINT lknee
		{
			OFFSET 0.043451 -0.386469 0.008037
			CHANNELS 3 Zrotation Yrotation Xrotation
			JOINT lankle
			{
				OFFSET -0.014790 -0.426874 -0.037428
				CHANNELS 3 Zrotation Yrotation Xrotation
				JOINT ltoe
				{
					OFFSET 0.041054 -0.060286 0.122042
					CHANNELS 3 Zrotation Yrotation Xrotation
					End Site
					{
						OFFSET 0.000000 0.000000 0.000000
					}
				}
			}
		}
	}
	JOINT rhip
	{
		OFFSET -0.060310 -0.090513 -0.013543
		CHANNELS 3 Zrotation Yrotation Xrotation
		JOINT rknee
		{
			OFFSET -0.043257 -0.383688 -0.004843
			CHANNELS 3 Zrotation Yrotation Xrotation
			JOINT rankle
			{
				OFFSET 0.019056 -0.420046 -0.034562
				CHANNELS 3 Zrotation Yrotation Xrotation
				JOINT rtoe
				{
					OFFSET -0.034840 -0.062106 0.130323
					CHANNELS 3 Zrotation Yrotation Xrotation
					End Site
					{
						OFFSET 0.000000 0.000000 0.000000
					}
				}
			}
		}
	}
	JOINT lowerback
	{
		OFFSET 0.004439 0.124404 -0.038385
		CHANNELS 3 Zrotation Yrotation Xrotation
		JOINT upperback
		{
			OFFSET 0.004488 0.137956 0.026820
			CHANNELS 3 Zrotation Yrotation Xrotation
			JOINT chest
			{
				OFFSET -0.002265 0.056032 0.002855
				CHANNELS 3 Zrotation Yrotation Xrotation
				JOINT lowerneck
				{
					OFFSET -0.013390 0.211636 -0.033468
					CHANNELS 3 Zrotation Yrotation Xrotation
					JOINT upperneck
					{
						OFFSET 0.010113 0.088937 0.050410
						CHANNELS 3 Zrotation Yrotation Xrotation
						End Site
						{
							OFFSET 0.000000 0.000000 0.000000
						}
					}
				}
				JOINT lclavicle
				{
					OFFSET 0.071702 0.114000 -0.018898
					CHANNELS 3 Zrotation Yrotation Xrotation
					JOINT lshoulder
					{
						OFFSET 0.122921 0.045205 -0.019046
						CHANNELS 3 Zrotation Yrotation Xrotation
						JOINT lelbow
						{
							OFFSET 0.255332 -0.015649 -0.022946
							CHANNELS 3 Zrotation Yrotation Xrotation
							JOINT lwrist
							{
								OFFSET 0.265709 0.012698 -0.007375
								CHANNELS 3 Zrotation Yrotation Xrotation
								End Site
								{
									OFFSET 0.000000 0.000000 0.000000
								}
							}
						}
					}
				}
				JOINT rclavicle
				{
					OFFSET -0.082954 0.112472 -0.023707
					CHANNELS 3 Zrotation Yrotation Xrotation
					JOINT rshoulder
					{
						OFFSET -0.113228 0.046853 -0.008472
						CHANNELS 3 Zrotation Yrotation Xrotation
						JOINT relbow
						{
							OFFSET -0.260127 -0.014369 -0.031269
							CHANNELS 3 Zrotation Yrotation Xrotation
							JOINT rwrist
							{
								OFFSET -0.269108 0.006794 -0.006027
								CHANNELS 3 Zrotation Yrotation Xrotation
								End Site
								{
									OFFSET 0.000000 0.000000 0.000000
								}
							}
						}
					}
				}
			}
		}
	}
}
MOTION
Frames: 13
Frame Time: 0.033333
-0.392327 0.971514 0.975643 90.414799 -1.318394 109.734254 11.483452 0.340042 -36.005911 -9.819868 -6.552117 26.647314 -2.659989 -1.254343 -10.672743 0.000000 -0.000000 0.000000 -5.757342 -3.316699 -39.774122 2.855821 -1.271836 38.317288 5.876418 0.391048 -17.603356 0.000000 -0.000000 0.000000 -3.324785 -0.604427 22.063290 3.754427 -4.551502 -13.659129 2.893067 -0.411298 -7.163144 -6.917062 9.703344 -41.449393 1.532417 -4.022625 -10.786402 0.729335 -17.970458 -17.194887 -19.688968 -39.990939 -6.466002 87.907825 -51.263097 -92.982116 44.232134 -0.383906 -41.919430 13.671002 16.601531 -11.030348 44.971128 28.467433 15.100793 -75.261309 61.867146 -57.938541 -8.643679 9.741356 -10.083041 
-0.395107 0.980928 0.975173 90.652348 -1.500421 110.883172 11.113816 0.358369 -37.263204 -9.981772 -5.457174 25.958688 -1.979837 -1.704479 -10.535407 0.000000 -0.000000 0.000000 -6.260583 -3.291123 -40.799167 2.223816 -1.180994 37.644485 6.136342 0.060657 -17.158305 0.000000 -0.000000 0.000000 -3.240930 -0.920884 22.375170 3.886025 -4.592549 -13.594731 2.844933 -0.830643 -6.857524 -6.466797 9.044242 -41.434864 1.739060 -3.937685 -11.407892 -1.130777 -17.983980 -16.135551 -22.998486 -40.090312 -3.834860 88.623565 -52.410398 -92.824055 43.911000 0.049781 -42.645654 14.490001 15.896287 -10.736303 45.752893 27.925361 15.764179 -77.934809 61.537710 -60.624891 -8.931571 10.183232 -9.848797 
-0.398892 0.990104 0.973977 90.741041 -1.637508 111.979969 10.754918 0.319885 -38.588547 -9.827697 -4.305465 25.440074 -1.864239 -2.374515 -9.571192 0.000000 -0.000000 0.000000 -6.697887 -3.175508 -41.717558 1.330690 -1.166317 36.804557 6.121570 0.080084 -16.654076 0.000000 -0.000000 0.000000 -3.043600 -1.016714 23.291874 3.814845 -4.642461 -13.524004 2.800365 -0.808238 -6.914822 -6.238496 8.465427 -41.386587 1.947853 -3.786089 -11.799786 -2.844790 -18.128391 -15.043253 -27.773885 -40.281854 -0.816411 89.264943 -53.557713 -92.684767 43.020503 1.073897 -43.157918 14.747147 15.419822 -10.217320 46.475823 26.979390 15.910830 -81.370175 60.907081 -63.569842 -9.018681 9.573346 -10.001419 
-0.406058 1.000415 0.972601 90.106561 -1.492261 113.856713 10.696605 -0.014140 -40.814785 -9.611568 -3.602306 25.068867 -1.734083 -2.339989 -9.048647 0.000000 -0.000000 0.000000 -7.133516 -2.567271 -44.117407 0.559766 -0.849027 36.234974 6.774815 0.360986 -15.350129 0.000000 -0.000000 0.000000 -3.079996 -0.760142 23.924998 3.576750 -3.964218 -13.054670 2.944395 -0.989788 -6.812667 -5.818906 7.626493 -41.573188 2.142100 -3.724090 -11.584162 -5.348228 -17.596978 -13.770350 -35.201606 -40.298981 4.310431 90.899206 -54.850579 -93.477513 43.424587 2.909810 -44.139374 15.505670 14.524324 -9.608656 47.055598 26.528366 16.274915 -84.164971 60.541993 -66.418818 -9.874562 9.399264 -9.884444 
-0.409680 1.005849 0.971867 89.148867 -1.500977 115.405738 10.659734 -0.143777 -42.150171 -9.243595 -2.355581 24.388843 -1.591278 -2.164229 -8.719541 0.000000 -0.000000 0.000000 -7.728444 -2.202007 -46.142376 0.208673 -0.963640 35.967223 7.245384 0.972668 -14.408893 0.000000 -0.000000 0.000000 -3.432210 -0.758222 24.159829 3.231919 -3.748897 -13.513927 2.925176 -0.789506 -6.475085 -5.287079 7.399593 -41.287861 2.414873 -3.620257 -11.465204 -7.375953 -16.517742 -12.858123 -39.942113 -39.659539 7.650268 92.371473 -55.943478 -94.318946 43.369054 3.870191 -44.439360 16.531145 13.919200 -9.044356 47.848624 26.339949 16.919355 -85.233528 60.482919 -67.341336 -9.695832 8.774910 -9.659157 
-0.414894 1.012676 0.970487 88.234073 -0.838835 116.961722 11.276602 -0.178344 -43.531044 -8.771779 -0.807649 23.589088 -1.112178 -2.055701 -8.670713 0.000000 -0.000000 0.000000 -7.601873 -1.998173 -47.891424 0.085491 -0.913784 35.069322 7.383450 1.781061 -13.898400 0.000000 -0.000000 0.000000 -2.918520 -0.855684 25.135018 2.905385 -3.187992 -13.375905 2.680328 -0.607680 -6.593760 -4.946290 6.725236 -40.889159 2.555125 -3.294360 -11.432645 -9.783546 -15.394828 -11.658554 -45.377515 -37.656069 11.115889 94.283242 -57.109242 -94.751014 43.833152 5.329778 -45.165488 17.032314 13.285143 -8.265901 48.783763 26.237563 17.125904 -86.499171 60.670822 -68.219783 -9.662922 8.495005 -9.556677 
-0.420664 1.018545 0.969396 87.283976 -0.422882 118.782597 11.617367 -0.035794 -45.167617 -8.306405 0.511500 22.797554 -0.751420 -2.239649 -8.619923 0.000000 -0.000000 0.000000 -7.757605 -1.887417 -49.830838 -0.146910 -1.283468 33.826777 7.586914 2.479570 -13.038446 0.000000 -0.000000 0.000000 -2.836922 -1.049708 26.000974 2.538822 -2.671743 -13.462764 2.511942 -0.505876 -6.375250 -4.598197 6.485433 -41.096529 2.472722 -3.226236 -11.065042 -12.220997 -13.231017 -10.538758 -51.349648 -35.406387 14.758576 96.057793 -58.477313 -95.449674 43.514063 6.109485 -45.841335 18.183564 12.221931 -7.896054 50.129053 26.787893 18.021252 -86.536573 60.866120 -68.171737 -9.981616 8.736898 -8.983704 
-0.426911 1.023091 0.967261 86.709039 -0.322259 120.948189 11.929209 -0.028871 -47.262818 -8.087216 1.567712 21.975903 -0.648423 -2.398743 -8.184351 0.000000 -0.000000 0.000000 -8.104645 -2.211223 -51.859911 -0.133829 -1.612943 32.341157 7.721641 3.236088 -12.247002 0.000000 -0.000000 0.000000 -2.716051 -1.319302 26.494474 2.263148 -2.615906 -13.294648 2.272099 -0.703929 -6.215088 -4.251781 6.162396 -41.170610 2.626240 -3.039681 -11.093970 -14.590669 -11.215931 -9.293542 -54.880017 -32.520232 16.476029 97.035238 -59.664773 -95.168810 42.691084 6.531821 -46.908420 19.044473 11.221486 -7.552359 51.387567 27.192920 18.795628 -87.194218 61.615103 -68.464413 -9.897027 8.541458 -8.637088 
-0.432231 1.026704 0.965071 85.854630 -0.081695 123.063066 12.025272 0.550565 -49.216545 -7.857568 2.602658 21.191118 -0.590655 -2.640189 -7.872444 0.000000 -0.000000 0.000000 -8.157970 -2.383063 -53.905645 -0.201289 -1.907918 30.881348 7.537137 3.622072 -11.554185 0.000000 -0.000000 0.000000 -2.776087 -1.491464 27.160426 1.821153 -2.366965 -13.421103 2.145768 -0.726260 -6.130679 -3.975859 5.763078 -41.001921 2.831436 -2.523326 -11.235885 -16.772993 -9.167275 -8.062345 -57.865789 -29.139195 17.777703 97.388449 -60.486994 -95.152496 43.502836 7.144761 -46.926615 19.912082 10.355343 -6.916459 52.125381 27.098581 19.194435 -88.523344 62.156823 -69.724036 -9.897103 8.777765 -8.040455 
-0.439384 1.029810 0.962023 84.995534 0.318628 125.532864 12.573935 1.016266 -51.738832 -7.502334 4.037054 20.630962 -0.645093 -2.731795 -7.668247 0.000000 -0.000000 0.000000 -8.372797 -2.453259 -56.209927 0.144112 -2.290945 29.025458 7.637448 4.191216 -10.738291 0.000000 -0.000000 0.000000 -2.707518 -1.623571 28.140923 1.327717 -1.958048 -13.537511 1.892454 -0.696584 -5.960438 -3.853593 5.130927 -41.064752 2.812539 -2.288264 -11.210169 -19.010306 -6.438396 -6.810884 -60.762626 -25.620457 18.634949 97.076273 -60.955206 -94.775972 44.524247 8.681966 -47.922997 20.661146 9.058730 -6.439604 52.997353 27.018936 19.599883 -89.717225 62.746080 -70.722219 -10.317863 9.080207 -7.521712 
-0.445856 1.030403 0.959362 84.416517 0.579046 127.796738 13.622571 1.154497 -54.017969 -7.434644 5.246075 19.994762 -0.707812 -2.673186 -7.283343 0.000000 -0.000000 0.000000 -8.493996 -2.420757 -58.499643 0.346734 -2.547363 27.760152 7.620922 4.330692 -9.868879 0.000000 -0.000000 0.000000 -2.845897 -1.789467 28.373641 0.967446 -1.632987 -13.561368 1.716438 -0.813371 -5.706829 -3.785054 5.062846 -41.140681 2.749618 -1.988573 -11.163173 -20.670201 -4.693792 -5.863119 -61.112134 -22.714150 18.532875 96.388941 -60.772501 -94.841746 45.730547 8.875369 -47.190251 21.307610 8.271482 -5.871332 53.415620 27.254852 19.895070 -90.392186 62.805129 -71.445773 -10.470241 9.390010 -6.590665 
-0.452573 1.030140 0.957020 84.167745 0.911463 130.155235 15.648390 0.900805 -56.177298 -7.956352 6.614717 18.936299 0.358939 -1.957900 -6.688617 0.000000 -0.000000 0.000000 -10.014503 -1.681037 -59.986573 2.568929 -1.927804 25.083094 7.024704 0.317770 -9.132552 0.000000 -0.000000 0.000000 -3.050423 -2.428778 28.286726 0.960139 -1.058682 -13.712589 1.540991 -0.770910 -5.062022 -3.299420 2.503280 -42.502005 3.808616 0.389422 -9.598085 -21.906943 -2.858803 -4.649513 -60.794068 -20.817739 17.435789 97.177970 -60.932001 -96.354897 47.551004 10.352513 -46.389917 21.383672 8.081950 -5.551100 53.765628 26.943285 20.399972 -92.069116 61.396535 -75.020357 -3.279028 9.795617 -2.976621 
-0.459198 1.029160 0.955341 83.637326 1.099652 132.457821 16.678916 1.126195 -58.517249 -7.772160 7.719849 18.487384 0.502592 -1.432527 -6.246015 0.000000 -0.000000 0.000000 -10.328983 -1.746337 -62.341605 2.921208 -2.487147 23.933308 7.650209 0.214412 -8.217782 0.000000 -0.000000 0.000000 -3.759857 -2.587454 28.295310 0.872385 -0.497806 -14.264753 1.517435 -0.543167 -4.325531 -3.445877 2.981082 -42.766845 3.376250 -0.031649 -9.893725 -22.708426 -0.657576 -4.698023 -60.659455 -20.005369 17.292234 96.409726 -61.067864 -97.630309 50.690340 11.043754 -44.729035 22.223165 6.807549 -5.661111 53.561809 26.782909 21.327556 -92.699264 61.756423 -77.103573 -5.671185 8.880722 -3.806930 
